<svg xmlns:xlink="http://www.w3.org/1999/xlink" fill="none" xmlns="http://www.w3.org/2000/svg" viewBox="0 0 145 130" aria-hidden="true" role="img" width="145"  height="130" ><path d="M57.2 102.756H2c-1.1 0-2-.899-2-1.999V28.793c0-1.1.9-1.999 2-1.999h55.2c1.1 0 2 .9 2 2v71.963c0 1.1-.9 1.999-2 1.999z" fill="url(&quot;#paint0_linear_48080_21720-uid-10&quot;)"></path><path d="M29.6 78.769c11.653 0 21.1-9.443 21.1-21.09s-9.447-21.09-21.1-21.09c-11.653 0-21.1 9.443-21.1 21.09s9.447 21.09 21.1 21.09z" fill="#C2D1C2"></path><path d="M34.4 61.577l-.8-6.297h-8l-.9 6.297h9.7z" fill="url(&quot;#paint1_radial_48080_21720-uid-10&quot;)"></path><path d="M29.6 59.178c1.6.1 3.2.5 4.7 1.2l-.4-2.399h-5l.7 1.2z" fill="url(&quot;#paint2_linear_48080_21720-uid-10&quot;)"></path><path d="M24.6 57.579l.2.1c2.9 1.999 6.8 1.899 9.7-.1 3.8-2.699 4.7-7.996 2-11.894-2.7-3.798-8-4.698-11.9-1.999-3.8 2.699-4.7 7.996-2 11.894.6.8 1.3 1.5 2 1.999z" fill="url(&quot;#paint3_radial_48080_21720-uid-10&quot;)"></path><path d="M47.7 63.976c-1.7-2.599-4.7-4.198-7.9-4.198-.9 0-1.7.1-2.5.3l-2.3.6c-3.6 1-7.4 1-11 0l-2.3-.6c-.8-.2-1.7-.3-2.5-.3-3.1 0-6.1 1.6-7.8 4.198-.5.7-.8 1.5-1.1 2.299C15 76.869 27.5 81.767 38.2 76.969c4.8-2.098 8.6-5.996 10.8-10.794-.4-.7-.8-1.5-1.3-2.199z" fill="url(&quot;#paint4_radial_48080_21720-uid-10&quot;)"></path><path d="M49.3 91.362H9.8c-.4 0-.7.3-.7.7v.2c0 .4.3.7.7.7h39.5c.4 0 .7-.3.7-.7v-.2c.1-.4-.3-.7-.7-.7zm-5.8-5.197H15.6c-.4 0-.7.3-.7.7v.2c0 .4.3.699.7.699h27.9c.4 0 .7-.3.7-.7v-.2c0-.4-.3-.7-.7-.7z" fill="#C2D1C2"></path><path d="M143 102.756H87.8c-1.1 0-2-.899-2-1.999V28.793c0-1.1.9-1.999 2-1.999H143c1.1 0 2 .9 2 2v71.963c0 1.1-.9 1.999-2 1.999z" fill="url(&quot;#paint5_linear_48080_21720-uid-10&quot;)"></path><path d="M115.4 78.769c11.653 0 21.1-9.443 21.1-21.09s-9.447-21.09-21.1-21.09c-11.653 0-21.1 9.443-21.1 21.09s9.447 21.09 21.1 21.09z" fill="#C2D1C2"></path><path d="M120.3 61.577l-.9-6.297h-8l-.9 6.297h9.8z" fill="url(&quot;#paint6_radial_48080_21720-uid-10&quot;)"></path><path d="M115.401 59.178c1.6.1 3.2.5 4.7 1.2l-.3-2.5h-5l.6 1.3z" fill="url(&quot;#paint7_linear_48080_21720-uid-10&quot;)"></path><path d="M110.5 57.579l.2.1c2.9 1.999 6.8 1.899 9.7-.1 3.8-2.699 4.7-7.996 2-11.894-2.7-3.798-8-4.698-11.9-1.999-3.8 2.699-4.7 7.996-2 11.894.5.8 1.2 1.5 2 1.999z" fill="url(&quot;#paint8_radial_48080_21720-uid-10&quot;)"></path><path d="M133.6 63.976c-1.7-2.599-4.7-4.198-7.9-4.198-.9 0-1.7.1-2.5.3l-2.3.6c-3.6 1-7.4 1-11 0l-2.3-.6c-.8-.2-1.7-.3-2.5-.3-3.1 0-6.1 1.6-7.8 4.198-.5.7-.8 1.5-1.1 2.299 4.7 10.694 17.2 15.492 27.9 10.794 4.8-2.099 8.6-5.997 10.8-10.794-.5-.8-.9-1.6-1.3-2.299z" fill="url(&quot;#paint9_radial_48080_21720-uid-10&quot;)"></path><path d="M135.2 91.362H95.7c-.4 0-.7.3-.7.7v.2c0 .4.3.7.7.7h39.5c.4 0 .7-.3.7-.7v-.2c0-.4-.3-.7-.7-.7zm-5.8-5.197h-27.9c-.4 0-.7.3-.7.7v.2c0 .4.3.699.7.699h27.9c.4 0 .7-.3.7-.7v-.2c0-.4-.3-.7-.7-.7z" fill="#C2D1C2"></path><path d="M114.3 15h-1c1.5 0 2.8 1.4 2.8 3.198v96.752h1V18.198c.1-1.799-1.2-3.198-2.8-3.198z" fill="#9BA797"></path><path d="M126.1 114.95H20c-.7 0-1.2-.599-1.2-1.199 0-.7.6-1.199 1.2-1.199h106.1c.7 0 1.2.599 1.2 1.199 0 .6-.6 1.199-1.2 1.199z" fill="url(&quot;#paint10_linear_48080_21720-uid-10&quot;)"></path><path d="M116.1 114.95V18.198c0-1.699-1.2-3.198-2.8-3.198H31.7c-1.5 0-2.8 1.4-2.8 3.198v96.752h87.2z" fill="url(&quot;#paint11_linear_48080_21720-uid-10&quot;)"></path><rect x="35" y="83" width="75" height="16" rx="8" fill="#1F57C3"></rect><path fill-rule="evenodd" clip-rule="evenodd" d="M47.2 88.636c.1 0 .3 0 .3.2.1.1 0 .2-.1.4-1.2 1.899-2.4 3.798-3.6 5.797-.1.1-.2.2-.3.2-.1-.1-.2-.2-.2-.3.1-.5.4-2.999.5-3.798 0-.1 0-.2-.2-.2h-2.4c-.2 0-.3 0-.4-.2-.1-.2 0-.3.1-.4 1-1.399 2-2.698 2.9-4.098 0-.1.1-.1.2-.2.2-.1.5 0 .5.3v2.2c0 .2 0 .2.2.2.1-.1 2.4-.1 2.5-.1z" fill="#FFFFFF"></path><path d="M98.378 89.813h.987l.924 3.45h.018l.924-3.45h.916l.933 3.45h.018l.915-3.45H105l-1.386 4.543h-.943l-.978-3.467h-.017l-.969 3.467h-.933l-1.396-4.543zm-2.612 4.676c-1.422 0-2.285-.987-2.285-2.4 0-1.413.863-2.4 2.285-2.4 1.422 0 2.284.987 2.284 2.4 0 1.413-.862 2.4-2.284 2.4zm0-.764c.889 0 1.351-.703 1.351-1.636 0-.942-.462-1.636-1.351-1.636s-1.351.694-1.351 1.636c0 .933.462 1.636 1.35 1.636zm-4.631-4.036c.844 0 1.511.489 1.511 1.529v3.138h-.942v-2.871c0-.614-.258-1.005-.898-1.005-.72 0-1.182.436-1.182 1.111v2.765h-.934v-4.543h.934v.587h.017c.24-.356.712-.711 1.494-.711zm-7.391 4.036c.773 0 1.085-.48 1.165-.756h.933c-.231.862-.907 1.52-2.071 1.52-1.414 0-2.276-.978-2.276-2.4 0-1.476.862-2.4 2.231-2.4 1.467 0 2.187 1.022 2.187 2.64h-3.484c0 .764.488 1.396 1.315 1.396zm-.018-3.298c-.755 0-1.297.506-1.297 1.209h2.55c0-.703-.497-1.21-1.253-1.21zM79.664 88h.942v6.356h-.942V88zm-2.92 1.689c1.165 0 2.027.907 2.027 2.4 0 1.493-.862 2.4-2.027 2.4-.702 0-1.147-.347-1.387-.658h-.017v.525h-.934V88h.934v2.365h.017c.24-.347.685-.676 1.387-.676zm-.16 4.036c.818 0 1.253-.747 1.253-1.636 0-.889-.435-1.636-1.253-1.636-.764 0-1.236.623-1.236 1.636 0 1.004.472 1.636 1.236 1.636zm-4.314-2.721c0-.328-.195-.577-.818-.577-.746 0-1.022.23-1.066.817h-.907c.044-.87.604-1.555 1.973-1.555 1.005 0 1.751.382 1.751 1.591v2.16c0 .32.072.489.436.453v.445c-.213.08-.364.098-.542.098-.498 0-.73-.178-.818-.623h-.018c-.284.4-.8.676-1.502.676-.924 0-1.493-.533-1.493-1.298 0-.995.737-1.306 1.875-1.529.702-.133 1.13-.222 1.13-.658zm-1.307 2.747c.774 0 1.307-.382 1.307-1.12v-.684c-.151.106-.516.213-.951.302-.773.169-1.111.391-1.111.853 0 .418.249.65.755.65zM67.453 88h.942v6.356h-.942V88zm-1.592 1.049c-.257 0-.524-.178-.524-.498s.267-.489.524-.489c.276 0 .534.17.534.49 0 .32-.258.497-.534.497zm-.462.764h.933v4.543H65.4v-4.543zM63.2 91.004c0-.328-.196-.577-.818-.577-.747 0-1.022.23-1.067.817h-.906c.044-.87.604-1.555 1.973-1.555 1.004 0 1.751.382 1.751 1.591v2.16c0 .32.071.489.436.453v.445a1.41 1.41 0 01-.543.098c-.497 0-.728-.178-.817-.623h-.018c-.285.4-.8.676-1.502.676-.925 0-1.494-.533-1.494-1.298 0-.995.738-1.306 1.876-1.529.702-.133 1.129-.222 1.129-.658zm-1.307 2.747c.773 0 1.307-.382 1.307-1.12v-.684c-.151.106-.516.213-.951.302-.774.169-1.111.391-1.111.853 0 .418.248.65.755.65zm-6.238-3.938h.987l1.147 3.556h.008l1.147-3.556h.987l-1.61 4.543h-1.057l-1.609-4.543zm-1.468 3.04H51.59l-.515 1.503H50L52.338 88h1.11l2.33 6.356h-1.076l-.515-1.503zm-2.303-.88h2.018l-.995-3.004h-.018l-1.005 3.004z" fill="#FFFFFF"></path><path d="M72.5 76.47c14.305 0 25.9-11.59 25.9-25.887S86.806 24.696 72.5 24.696c-14.304 0-25.9 11.59-25.9 25.887S58.197 76.47 72.5 76.47z" fill="#C4D0C2"></path><path d="M85.401 48.584c-.8-2.3-1.1-4.698-.9-7.097v-.9c0-6.596-5.4-11.994-12-11.994s-12 5.298-12.1 11.795v1.1c.2 2.398-.2 4.797-.9 7.096-.4 1.299-.7 2.698-.7 4.197-.1 7.597 6 13.794 13.5 13.794 7.7.1 13.9-5.998 13.9-13.594 0-1.599-.3-2.998-.8-4.398z" fill="url(&quot;#paint12_radial_48080_21720-uid-10&quot;)"></path><path d="M78.501 55.28l-1.1-7.696h-9.8l-1.1 7.697h12z" fill="url(&quot;#paint13_linear_48080_21720-uid-10&quot;)"></path><path d="M72.5 52.382c3.1 0 5.8 1.499 5.8 1.499l-.4-2.999h-6.2l.8 1.5z" fill="url(&quot;#paint14_linear_48080_21720-uid-10&quot;)"></path><path d="M82.2 37.989l-1.8-.4c-3.3-.8-6.1-2.898-7.8-5.697a12.81 12.81 0 01-7.8 5.697l-1.9.4c-.5 1.2-.8 2.399-.8 3.798-.1 3.598 1.7 6.797 4.4 8.696l.2.2c1.7 1.1 3.7 1.799 5.8 1.799 2.3 0 4.4-.7 6.1-2 2.6-1.898 4.4-4.997 4.4-8.495-.1-1.5-.3-2.799-.8-3.998z" fill="url(&quot;#paint15_radial_48080_21720-uid-10&quot;)"></path><path d="M94.802 58.28c-2.2-3.3-5.8-5.198-9.7-5.198-1 0-2.1.1-3.1.4l-2.8.8a25.783 25.783 0 01-13.5 0l-2.7-.8c-1-.3-2.1-.4-3.1-.4-3.9 0-7.5 1.999-9.7 5.197-.6.9-1.1 1.8-1.4 2.799 4 9.095 13.1 15.492 23.7 15.492s19.7-6.397 23.7-15.492c-.3-1-.8-1.9-1.4-2.799z" fill="url(&quot;#paint16_radial_48080_21720-uid-10&quot;)"></path><path d="M60.102 73.372c3.7 1.999 7.9 3.098 12.4 3.098s8.7-1.099 12.4-3.098V62.877h-24.8v10.495z" fill="url(&quot;#paint17_radial_48080_21720-uid-10&quot;)"></path><defs><radialGradient id="paint1_radial_48080_21720-uid-10" cx="0" cy="0" r="1" gradientUnits="userSpaceOnUse" gradientTransform="matrix(11.1613 0 0 11.1557 22.907 59.986)"><stop offset=".677" stop-color="#D4DFD4"></stop><stop offset=".801" stop-color="#C0CDBF"></stop><stop offset="1" stop-color="#99A996"></stop></radialGradient><radialGradient id="paint3_radial_48080_21720-uid-10" cx="0" cy="0" r="1" gradientUnits="userSpaceOnUse" gradientTransform="matrix(10.0858 0 0 10.0808 27.626 47.899)"><stop offset=".677" stop-color="#D4DFD4"></stop><stop offset=".801" stop-color="#C0CDBF"></stop><stop offset="1" stop-color="#99A996"></stop></radialGradient><radialGradient id="paint4_radial_48080_21720-uid-10" cx="0" cy="0" r="1" gradientUnits="userSpaceOnUse" gradientTransform="matrix(21.8841 0 0 21.8732 28.402 59.781)"><stop offset=".677" stop-color="#99A996"></stop><stop offset=".804" stop-color="#879681"></stop><stop offset="1" stop-color="#65735B"></stop></radialGradient><radialGradient id="paint6_radial_48080_21720-uid-10" cx="0" cy="0" r="1" gradientUnits="userSpaceOnUse" gradientTransform="matrix(11.1613 0 0 11.1557 108.73 59.986)"><stop offset=".677" stop-color="#D4DFD4"></stop><stop offset=".801" stop-color="#C0CDBF"></stop><stop offset="1" stop-color="#99A996"></stop></radialGradient><radialGradient id="paint8_radial_48080_21720-uid-10" cx="0" cy="0" r="1" gradientUnits="userSpaceOnUse" gradientTransform="matrix(10.0858 0 0 10.0808 113.448 47.899)"><stop offset=".677" stop-color="#D4DFD4"></stop><stop offset=".801" stop-color="#C0CDBF"></stop><stop offset="1" stop-color="#99A996"></stop></radialGradient><radialGradient id="paint9_radial_48080_21720-uid-10" cx="0" cy="0" r="1" gradientUnits="userSpaceOnUse" gradientTransform="matrix(21.8841 0 0 21.8732 114.224 59.781)"><stop offset=".677" stop-color="#99A996"></stop><stop offset=".804" stop-color="#879681"></stop><stop offset="1" stop-color="#65735B"></stop></radialGradient><radialGradient id="paint12_radial_48080_21720-uid-10" cx="0" cy="0" r="1" gradientUnits="userSpaceOnUse" gradientTransform="matrix(18.925 0 0 18.9156 68.06 31.349)"><stop offset=".677" stop-color="#67541F"></stop><stop offset=".891" stop-color="#553F25"></stop><stop offset="1" stop-color="#4A3328"></stop></radialGradient><radialGradient id="paint15_radial_48080_21720-uid-10" cx="0" cy="0" r="1" gradientUnits="userSpaceOnUse" gradientTransform="matrix(12.3238 0 0 12.3176 72.012 37.888)"><stop offset=".677" stop-color="#EA9446"></stop><stop offset=".854" stop-color="#D77F37"></stop><stop offset="1" stop-color="#C56B28"></stop></radialGradient><radialGradient id="paint16_radial_48080_21720-uid-10" cx="0" cy="0" r="1" gradientUnits="userSpaceOnUse" gradientTransform="matrix(28.4034 0 0 28.3892 72.23 49.698)"><stop offset=".68" stop-color="#F56DBB"></stop><stop offset=".76" stop-color="#F06BB8"></stop><stop offset=".93" stop-color="#CC5A9E"></stop><stop offset=".939" stop-color="#A74883"></stop></radialGradient><radialGradient id="paint17_radial_48080_21720-uid-10" cx="0" cy="0" r="1" gradientUnits="userSpaceOnUse" gradientTransform="matrix(17.6967 0 0 17.6879 73.294 59.338)"><stop offset=".68" stop-color="#F56DBB"></stop><stop offset=".76" stop-color="#F06BB8"></stop><stop offset=".93" stop-color="#CC5A9E"></stop><stop offset="1" stop-color="#A74883"></stop></radialGradient><linearGradient id="paint0_linear_48080_21720-uid-10" x1="29.588" y1="102.747" x2="29.588" y2="26.825" gradientUnits="userSpaceOnUse"><stop stop-color="#E3EAE3"></stop><stop offset=".61" stop-color="#E1E8E1"></stop><stop offset=".89" stop-color="#DAE3DA"></stop><stop offset="1" stop-color="#D4DFD4"></stop></linearGradient><linearGradient id="paint2_linear_48080_21720-uid-10" x1="31.598" y1="60.403" x2="31.598" y2="57.952" gradientUnits="userSpaceOnUse"><stop stop-color="#65735B" stop-opacity="0"></stop><stop offset="1" stop-color="#65735B"></stop></linearGradient><linearGradient id="paint5_linear_48080_21720-uid-10" x1="115.412" y1="102.747" x2="115.412" y2="26.825" gradientUnits="userSpaceOnUse"><stop stop-color="#E3EAE3"></stop><stop offset=".61" stop-color="#E1E8E1"></stop><stop offset=".89" stop-color="#DAE3DA"></stop><stop offset="1" stop-color="#D4DFD4"></stop></linearGradient><linearGradient id="paint7_linear_48080_21720-uid-10" x1="117.425" y1="60.403" x2="117.425" y2="57.951" gradientUnits="userSpaceOnUse"><stop stop-color="#65735B" stop-opacity="0"></stop><stop offset="1" stop-color="#65735B"></stop></linearGradient><linearGradient id="paint10_linear_48080_21720-uid-10" x1="18.789" y1="113.794" x2="127.242" y2="113.794" gradientUnits="userSpaceOnUse"><stop stop-color="#C2D1C2" stop-opacity="0"></stop><stop offset=".01" stop-color="#C2D1C2" stop-opacity=".05"></stop><stop offset=".03" stop-color="#C2D1C2" stop-opacity=".3"></stop><stop offset=".06" stop-color="#C2D1C2" stop-opacity=".51"></stop><stop offset=".09" stop-color="#C2D1C2" stop-opacity=".69"></stop><stop offset=".12" stop-color="#C2D1C2" stop-opacity=".83"></stop><stop offset=".14" stop-color="#C2D1C2" stop-opacity=".92"></stop><stop offset=".17" stop-color="#C2D1C2" stop-opacity=".98"></stop><stop offset=".2" stop-color="#C2D1C2"></stop><stop offset=".29" stop-color="#C2D1C2"></stop><stop offset=".84" stop-color="#C2D1C2"></stop><stop offset=".87" stop-color="#C2D1C2" stop-opacity=".78"></stop><stop offset=".96" stop-color="#C2D1C2" stop-opacity=".23"></stop><stop offset="1" stop-color="#C2D1C2" stop-opacity=".01"></stop></linearGradient><linearGradient id="paint11_linear_48080_21720-uid-10" x1="72.5" y1="114.966" x2="72.5" y2="14.984" gradientUnits="userSpaceOnUse"><stop stop-color="#F1F6F1"></stop><stop offset=".62" stop-color="#EFF4EF"></stop><stop offset=".908" stop-color="#E7EEE7"></stop><stop offset="1" stop-color="#E3EAE3"></stop></linearGradient><linearGradient id="paint13_linear_48080_21720-uid-10" x1="66.522" y1="51.447" x2="78.479" y2="51.447" gradientUnits="userSpaceOnUse"><stop offset=".52" stop-color="#EA9446"></stop><stop offset=".693" stop-color="#E0893E"></stop><stop offset=".996" stop-color="#C56B28"></stop><stop offset="1" stop-color="#C56B28"></stop></linearGradient><linearGradient id="paint14_linear_48080_21720-uid-10" x1="74.99" y1="53.889" x2="74.99" y2="50.878" gradientUnits="userSpaceOnUse"><stop stop-color="#A25928" stop-opacity="0"></stop><stop offset="1" stop-color="#A25928"></stop></linearGradient><linearGradient id="paint0_linear_48080_21720-uid-10" x1="29.588" y1="102.747" x2="29.588" y2="26.825" gradientUnits="userSpaceOnUse"><stop stop-color="#E3EAE3"></stop><stop offset=".61" stop-color="#E1E8E1"></stop><stop offset=".89" stop-color="#DAE3DA"></stop><stop offset="1" stop-color="#D4DFD4"></stop></linearGradient><radialGradient id="paint1_radial_48080_21720-uid-10" cx="0" cy="0" r="1" gradientUnits="userSpaceOnUse" gradientTransform="matrix(11.1613 0 0 11.1557 22.907 59.986)"><stop offset=".677" stop-color="#D4DFD4"></stop><stop offset=".801" stop-color="#C0CDBF"></stop><stop offset="1" stop-color="#99A996"></stop></radialGradient><linearGradient id="paint2_linear_48080_21720-uid-10" x1="31.598" y1="60.403" x2="31.598" y2="57.952" gradientUnits="userSpaceOnUse"><stop stop-color="#65735B" stop-opacity="0"></stop><stop offset="1" stop-color="#65735B"></stop></linearGradient><radialGradient id="paint3_radial_48080_21720-uid-10" cx="0" cy="0" r="1" gradientUnits="userSpaceOnUse" gradientTransform="matrix(10.0858 0 0 10.0808 27.626 47.899)"><stop offset=".677" stop-color="#D4DFD4"></stop><stop offset=".801" stop-color="#C0CDBF"></stop><stop offset="1" stop-color="#99A996"></stop></radialGradient><radialGradient id="paint4_radial_48080_21720-uid-10" cx="0" cy="0" r="1" gradientUnits="userSpaceOnUse" gradientTransform="matrix(21.8841 0 0 21.8732 28.402 59.781)"><stop offset=".677" stop-color="#99A996"></stop><stop offset=".804" stop-color="#879681"></stop><stop offset="1" stop-color="#65735B"></stop></radialGradient><linearGradient id="paint5_linear_48080_21720-uid-10" x1="115.412" y1="102.747" x2="115.412" y2="26.825" gradientUnits="userSpaceOnUse"><stop stop-color="#E3EAE3"></stop><stop offset=".61" stop-color="#E1E8E1"></stop><stop offset=".89" stop-color="#DAE3DA"></stop><stop offset="1" stop-color="#D4DFD4"></stop></linearGradient><radialGradient id="paint6_radial_48080_21720-uid-10" cx="0" cy="0" r="1" gradientUnits="userSpaceOnUse" gradientTransform="matrix(11.1613 0 0 11.1557 108.73 59.986)"><stop offset=".677" stop-color="#D4DFD4"></stop><stop offset=".801" stop-color="#C0CDBF"></stop><stop offset="1" stop-color="#99A996"></stop></radialGradient><linearGradient id="paint7_linear_48080_21720-uid-10" x1="117.425" y1="60.403" x2="117.425" y2="57.951" gradientUnits="userSpaceOnUse"><stop stop-color="#65735B" stop-opacity="0"></stop><stop offset="1" stop-color="#65735B"></stop></linearGradient><radialGradient id="paint8_radial_48080_21720-uid-10" cx="0" cy="0" r="1" gradientUnits="userSpaceOnUse" gradientTransform="matrix(10.0858 0 0 10.0808 113.448 47.899)"><stop offset=".677" stop-color="#D4DFD4"></stop><stop offset=".801" stop-color="#C0CDBF"></stop><stop offset="1" stop-color="#99A996"></stop></radialGradient><radialGradient id="paint9_radial_48080_21720-uid-10" cx="0" cy="0" r="1" gradientUnits="userSpaceOnUse" gradientTransform="matrix(21.8841 0 0 21.8732 114.224 59.781)"><stop offset=".677" stop-color="#99A996"></stop><stop offset=".804" stop-color="#879681"></stop><stop offset="1" stop-color="#65735B"></stop></radialGradient><linearGradient id="paint10_linear_48080_21720-uid-10" x1="18.789" y1="113.794" x2="127.242" y2="113.794" gradientUnits="userSpaceOnUse"><stop stop-color="#C2D1C2" stop-opacity="0"></stop><stop offset=".01" stop-color="#C2D1C2" stop-opacity=".05"></stop><stop offset=".03" stop-color="#C2D1C2" stop-opacity=".3"></stop><stop offset=".06" stop-color="#C2D1C2" stop-opacity=".51"></stop><stop offset=".09" stop-color="#C2D1C2" stop-opacity=".69"></stop><stop offset=".12" stop-color="#C2D1C2" stop-opacity=".83"></stop><stop offset=".14" stop-color="#C2D1C2" stop-opacity=".92"></stop><stop offset=".17" stop-color="#C2D1C2" stop-opacity=".98"></stop><stop offset=".2" stop-color="#C2D1C2"></stop><stop offset=".29" stop-color="#C2D1C2"></stop><stop offset=".84" stop-color="#C2D1C2"></stop><stop offset=".87" stop-color="#C2D1C2" stop-opacity=".78"></stop><stop offset=".96" stop-color="#C2D1C2" stop-opacity=".23"></stop><stop offset="1" stop-color="#C2D1C2" stop-opacity=".01"></stop></linearGradient><linearGradient id="paint11_linear_48080_21720-uid-10" x1="72.5" y1="114.966" x2="72.5" y2="14.984" gradientUnits="userSpaceOnUse"><stop stop-color="#F1F6F1"></stop><stop offset=".62" stop-color="#EFF4EF"></stop><stop offset=".908" stop-color="#E7EEE7"></stop><stop offset="1" stop-color="#E3EAE3"></stop></linearGradient><radialGradient id="paint12_radial_48080_21720-uid-10" cx="0" cy="0" r="1" gradientUnits="userSpaceOnUse" gradientTransform="matrix(18.925 0 0 18.9156 68.06 31.349)"><stop offset=".677" stop-color="#67541F"></stop><stop offset=".891" stop-color="#553F25"></stop><stop offset="1" stop-color="#4A3328"></stop></radialGradient><linearGradient id="paint13_linear_48080_21720-uid-10" x1="66.522" y1="51.447" x2="78.479" y2="51.447" gradientUnits="userSpaceOnUse"><stop offset=".52" stop-color="#EA9446"></stop><stop offset=".693" stop-color="#E0893E"></stop><stop offset=".996" stop-color="#C56B28"></stop><stop offset="1" stop-color="#C56B28"></stop></linearGradient><linearGradient id="paint14_linear_48080_21720-uid-10" x1="74.99" y1="53.889" x2="74.99" y2="50.878" gradientUnits="userSpaceOnUse"><stop stop-color="#A25928" stop-opacity="0"></stop><stop offset="1" stop-color="#A25928"></stop></linearGradient><radialGradient id="paint15_radial_48080_21720-uid-10" cx="0" cy="0" r="1" gradientUnits="userSpaceOnUse" gradientTransform="matrix(12.3238 0 0 12.3176 72.012 37.888)"><stop offset=".677" stop-color="#EA9446"></stop><stop offset=".854" stop-color="#D77F37"></stop><stop offset="1" stop-color="#C56B28"></stop></radialGradient><radialGradient id="paint16_radial_48080_21720-uid-10" cx="0" cy="0" r="1" gradientUnits="userSpaceOnUse" gradientTransform="matrix(28.4034 0 0 28.3892 72.23 49.698)"><stop offset=".68" stop-color="#F56DBB"></stop><stop offset=".76" stop-color="#F06BB8"></stop><stop offset=".93" stop-color="#CC5A9E"></stop><stop offset=".939" stop-color="#A74883"></stop></radialGradient><radialGradient id="paint17_radial_48080_21720-uid-10" cx="0" cy="0" r="1" gradientUnits="userSpaceOnUse" gradientTransform="matrix(17.6967 0 0 17.6879 73.294 59.338)"><stop offset=".68" stop-color="#F56DBB"></stop><stop offset=".76" stop-color="#F06BB8"></stop><stop offset=".93" stop-color="#CC5A9E"></stop><stop offset="1" stop-color="#A74883"></stop></radialGradient><linearGradient id="paint0_linear_48080_21720-uid-10" x1="29.588" y1="102.747" x2="29.588" y2="26.825" gradientUnits="userSpaceOnUse"><stop stop-color="#E3EAE3"></stop><stop offset=".61" stop-color="#E1E8E1"></stop><stop offset=".89" stop-color="#DAE3DA"></stop><stop offset="1" stop-color="#D4DFD4"></stop></linearGradient><radialGradient id="paint1_radial_48080_21720-uid-10" cx="0" cy="0" r="1" gradientUnits="userSpaceOnUse" gradientTransform="matrix(11.1613 0 0 11.1557 22.907 59.986)"><stop offset=".677" stop-color="#D4DFD4"></stop><stop offset=".801" stop-color="#C0CDBF"></stop><stop offset="1" stop-color="#99A996"></stop></radialGradient><linearGradient id="paint2_linear_48080_21720-uid-10" x1="31.598" y1="60.403" x2="31.598" y2="57.952" gradientUnits="userSpaceOnUse"><stop stop-color="#65735B" stop-opacity="0"></stop><stop offset="1" stop-color="#65735B"></stop></linearGradient><radialGradient id="paint3_radial_48080_21720-uid-10" cx="0" cy="0" r="1" gradientUnits="userSpaceOnUse" gradientTransform="matrix(10.0858 0 0 10.0808 27.626 47.899)"><stop offset=".677" stop-color="#D4DFD4"></stop><stop offset=".801" stop-color="#C0CDBF"></stop><stop offset="1" stop-color="#99A996"></stop></radialGradient><radialGradient id="paint4_radial_48080_21720-uid-10" cx="0" cy="0" r="1" gradientUnits="userSpaceOnUse" gradientTransform="matrix(21.8841 0 0 21.8732 28.402 59.781)"><stop offset=".677" stop-color="#99A996"></stop><stop offset=".804" stop-color="#879681"></stop><stop offset="1" stop-color="#65735B"></stop></radialGradient><linearGradient id="paint5_linear_48080_21720-uid-10" x1="115.412" y1="102.747" x2="115.412" y2="26.825" gradientUnits="userSpaceOnUse"><stop stop-color="#E3EAE3"></stop><stop offset=".61" stop-color="#E1E8E1"></stop><stop offset=".89" stop-color="#DAE3DA"></stop><stop offset="1" stop-color="#D4DFD4"></stop></linearGradient><radialGradient id="paint6_radial_48080_21720-uid-10" cx="0" cy="0" r="1" gradientUnits="userSpaceOnUse" gradientTransform="matrix(11.1613 0 0 11.1557 108.73 59.986)"><stop offset=".677" stop-color="#D4DFD4"></stop><stop offset=".801" stop-color="#C0CDBF"></stop><stop offset="1" stop-color="#99A996"></stop></radialGradient><linearGradient id="paint7_linear_48080_21720-uid-10" x1="117.425" y1="60.403" x2="117.425" y2="57.951" gradientUnits="userSpaceOnUse"><stop stop-color="#65735B" stop-opacity="0"></stop><stop offset="1" stop-color="#65735B"></stop></linearGradient><radialGradient id="paint8_radial_48080_21720-uid-10" cx="0" cy="0" r="1" gradientUnits="userSpaceOnUse" gradientTransform="matrix(10.0858 0 0 10.0808 113.448 47.899)"><stop offset=".677" stop-color="#D4DFD4"></stop><stop offset=".801" stop-color="#C0CDBF"></stop><stop offset="1" stop-color="#99A996"></stop></radialGradient><radialGradient id="paint9_radial_48080_21720-uid-10" cx="0" cy="0" r="1" gradientUnits="userSpaceOnUse" gradientTransform="matrix(21.8841 0 0 21.8732 114.224 59.781)"><stop offset=".677" stop-color="#99A996"></stop><stop offset=".804" stop-color="#879681"></stop><stop offset="1" stop-color="#65735B"></stop></radialGradient><linearGradient id="paint10_linear_48080_21720-uid-10" x1="18.789" y1="113.794" x2="127.242" y2="113.794" gradientUnits="userSpaceOnUse"><stop stop-color="#C2D1C2" stop-opacity="0"></stop><stop offset=".01" stop-color="#C2D1C2" stop-opacity=".05"></stop><stop offset=".03" stop-color="#C2D1C2" stop-opacity=".3"></stop><stop offset=".06" stop-color="#C2D1C2" stop-opacity=".51"></stop><stop offset=".09" stop-color="#C2D1C2" stop-opacity=".69"></stop><stop offset=".12" stop-color="#C2D1C2" stop-opacity=".83"></stop><stop offset=".14" stop-color="#C2D1C2" stop-opacity=".92"></stop><stop offset=".17" stop-color="#C2D1C2" stop-opacity=".98"></stop><stop offset=".2" stop-color="#C2D1C2"></stop><stop offset=".29" stop-color="#C2D1C2"></stop><stop offset=".84" stop-color="#C2D1C2"></stop><stop offset=".87" stop-color="#C2D1C2" stop-opacity=".78"></stop><stop offset=".96" stop-color="#C2D1C2" stop-opacity=".23"></stop><stop offset="1" stop-color="#C2D1C2" stop-opacity=".01"></stop></linearGradient><linearGradient id="paint11_linear_48080_21720-uid-10" x1="72.5" y1="114.966" x2="72.5" y2="14.984" gradientUnits="userSpaceOnUse"><stop stop-color="#F1F6F1"></stop><stop offset=".62" stop-color="#EFF4EF"></stop><stop offset=".908" stop-color="#E7EEE7"></stop><stop offset="1" stop-color="#E3EAE3"></stop></linearGradient><radialGradient id="paint12_radial_48080_21720-uid-10" cx="0" cy="0" r="1" gradientUnits="userSpaceOnUse" gradientTransform="matrix(18.925 0 0 18.9156 68.06 31.349)"><stop offset=".677" stop-color="#67541F"></stop><stop offset=".891" stop-color="#553F25"></stop><stop offset="1" stop-color="#4A3328"></stop></radialGradient><linearGradient id="paint13_linear_48080_21720-uid-10" x1="66.522" y1="51.447" x2="78.479" y2="51.447" gradientUnits="userSpaceOnUse"><stop offset=".52" stop-color="#EA9446"></stop><stop offset=".693" stop-color="#E0893E"></stop><stop offset=".996" stop-color="#C56B28"></stop><stop offset="1" stop-color="#C56B28"></stop></linearGradient><linearGradient id="paint14_linear_48080_21720-uid-10" x1="74.99" y1="53.889" x2="74.99" y2="50.878" gradientUnits="userSpaceOnUse"><stop stop-color="#A25928" stop-opacity="0"></stop><stop offset="1" stop-color="#A25928"></stop></linearGradient><radialGradient id="paint15_radial_48080_21720-uid-10" cx="0" cy="0" r="1" gradientUnits="userSpaceOnUse" gradientTransform="matrix(12.3238 0 0 12.3176 72.012 37.888)"><stop offset=".677" stop-color="#EA9446"></stop><stop offset=".854" stop-color="#D77F37"></stop><stop offset="1" stop-color="#C56B28"></stop></radialGradient><radialGradient id="paint16_radial_48080_21720-uid-10" cx="0" cy="0" r="1" gradientUnits="userSpaceOnUse" gradientTransform="matrix(28.4034 0 0 28.3892 72.23 49.698)"><stop offset=".68" stop-color="#F56DBB"></stop><stop offset=".76" stop-color="#F06BB8"></stop><stop offset=".93" stop-color="#CC5A9E"></stop><stop offset=".939" stop-color="#A74883"></stop></radialGradient><radialGradient id="paint17_radial_48080_21720-uid-10" cx="0" cy="0" r="1" gradientUnits="userSpaceOnUse" gradientTransform="matrix(17.6967 0 0 17.6879 73.294 59.338)"><stop offset=".68" stop-color="#F56DBB"></stop><stop offset=".76" stop-color="#F06BB8"></stop><stop offset=".93" stop-color="#CC5A9E"></stop><stop offset="1" stop-color="#A74883"></stop></radialGradient></defs></svg>