<svg xmlns:xlink="http://www.w3.org/1999/xlink" fill="none" xmlns="http://www.w3.org/2000/svg" viewBox="0 0 145 130" aria-hidden="true" role="img" width="145"  height="130" ><path d="M126.943 121.535H23.619c-2.553 0-4.56-2.006-4.56-4.56V83.781c0-2.554 2.007-4.56 4.56-4.56h103.415c2.554 0 4.56 2.006 4.56 4.56v33.194c-.091 2.554-2.097 4.56-4.651 4.56z" fill="url(&quot;#paint0_linear_48080_21721-uid-11&quot;)"></path><path d="M111.349 93.904H34.38a.817.817 0 01-.82-.821c0-.456.364-.82.82-.82h76.969c.456 0 .821.364.821.82 0 .456-.365.82-.821.82zm0 7.295H34.38a.817.817 0 01-.82-.821c0-.456.364-.82.82-.82h76.969c.456 0 .821.364.821.82a.818.818 0 01-.821.821zm0 7.295H34.38a.817.817 0 01-.82-.82c0-.456.364-.821.82-.821h76.969c.456 0 .821.365.821.821 0 .456-.365.82-.821.82z" fill="#C2D1C2"></path><path opacity=".5" d="M131.594 82.504H19.06v21.066h112.534V82.504z" fill="#C2D1C2"></path><path d="M134.695 95.91H15.868a4.516 4.516 0 01-4.56-4.56V52.41c0-2.554 2.007-4.56 4.56-4.56h118.827c2.554 0 4.56 2.006 4.56 4.56v39.03c0 2.463-2.006 4.47-4.56 4.47z" fill="url(&quot;#paint1_linear_48080_21721-uid-11&quot;)"></path><path d="M116.274 64.538H28.636a.914.914 0 01-.912-.912v-.091c0-.547.456-.912.912-.912h87.638c.547 0 .912.456.912.912v.09c0 .548-.365.913-.912.913zm0 16.597H28.636a.914.914 0 01-.912-.912v-.09c0-.548.456-.913.912-.913h87.638c.547 0 .912.456.912.912v.091c0 .547-.365.912-.912.912z" fill="#C2D1C2"></path><path d="M139.255 51.588H11.309v23.984h127.946V51.588z" fill="#D2DCD1"></path><path d="M116.274 72.836H28.636a.914.914 0 01-.912-.912v-.091c0-.547.456-.912.912-.912h87.638c.547 0 .912.456.912.912v.091c0 .547-.365.912-.912.912z" fill="#C5D1C3"></path><path d="M140.44 66.635H4.56c-2.554 0-4.56-2.006-4.56-4.56V13.56C0 11.006 2.006 9 4.56 9h135.88c2.554 0 4.56 2.006 4.56 4.56v48.515c0 2.554-2.006 4.56-4.56 4.56z" fill="url(&quot;#paint2_linear_48080_21721-uid-11&quot;)"></path><path d="M71.25 29.245H20.883c-.638 0-1.094-.547-1.094-1.095 0-.638.547-1.094 1.094-1.094H71.25c.639 0 1.095.547 1.095 1.095 0 .547-.456 1.094-1.095 1.094zm52.502 9.758H20.884c-.638 0-1.094-.547-1.094-1.095 0-.638.547-1.094 1.094-1.094h102.868c.639 0 1.095.547 1.095 1.094.091.548-.456 1.095-1.095 1.095zm0 9.758H20.884c-.638 0-1.094-.547-1.094-1.094 0-.639.547-1.095 1.094-1.095h102.868c.639 0 1.095.548 1.095 1.095.091.547-.456 1.094-1.095 1.094z" fill="#C2D1C2"></path><path d="M131.684 29H84.316C80.82 29 78 26.098 78 22.5s2.82-6.5 6.316-6.5h47.368c3.496 0 6.316 2.902 6.316 6.5s-2.82 6.5-6.316 6.5z" fill="#1F57C2"></path><path d="M86 19.158h3.236c.596 0 1.07.134 1.435.414.365.28.536.693.536 1.24 0 .341-.085.621-.243.864a1.63 1.63 0 01-.706.56c.413.11.718.304.937.596.207.304.316.681.316 1.131 0 .256-.049.511-.146.73a1.575 1.575 0 01-.438.584c-.195.159-.45.292-.766.39a3.757 3.757 0 01-1.108.146H86v-6.655zm1.168 2.786h1.898c.28 0 .51-.073.693-.243.183-.158.28-.39.28-.681 0-.341-.085-.572-.255-.706-.17-.134-.414-.207-.73-.207h-1.886v1.837zm0 2.92h2.056c.353 0 .632-.085.827-.28.195-.195.292-.438.292-.779 0-.34-.097-.584-.292-.766-.195-.183-.474-.268-.827-.268h-2.056v2.093zM95.586 19c.5 0 .95.097 1.339.28.389.182.73.438.997.754.268.316.487.681.633 1.107.146.426.219.876.219 1.338 0 .463-.073.925-.22 1.35a3.189 3.189 0 01-.632 1.108 2.928 2.928 0 01-.997.754c-.39.183-.84.28-1.339.28-.498 0-.948-.085-1.338-.28a2.928 2.928 0 01-.997-.754 3.21 3.21 0 01-.633-1.107 4.134 4.134 0 01-.219-1.35c0-.475.073-.925.219-1.339a3.21 3.21 0 01.633-1.107 2.92 2.92 0 01.997-.754c.39-.183.84-.28 1.338-.28zm0 .949c-.352 0-.657.073-.924.219a1.899 1.899 0 00-.633.572 2.58 2.58 0 00-.353.815 4.03 4.03 0 00-.121.936c0 .317.036.633.121.937.073.304.195.572.353.815.158.244.377.426.633.572.255.146.56.22.924.22.365 0 .657-.074.925-.22a1.9 1.9 0 00.633-.572c.158-.243.28-.51.352-.815.073-.304.122-.62.122-.937 0-.316-.036-.632-.122-.936a2.587 2.587 0 00-.352-.815 1.79 1.79 0 00-.633-.572c-.255-.146-.56-.22-.925-.22zm7.275-.949c.499 0 .949.097 1.339.28.389.182.729.438.997.754s.487.681.633 1.107c.146.426.219.876.219 1.338 0 .463-.073.925-.219 1.35a3.207 3.207 0 01-.633 1.108 2.933 2.933 0 01-.997.754c-.39.183-.84.28-1.339.28-.498 0-.949-.085-1.338-.28a2.923 2.923 0 01-.997-.754 3.209 3.209 0 01-.633-1.107 4.137 4.137 0 01-.219-1.35c0-.475.073-.925.219-1.339.146-.426.353-.79.633-1.107a2.92 2.92 0 01.997-.754c.389-.183.84-.28 1.338-.28zm0 .949c-.352 0-.657.073-.924.219a1.892 1.892 0 00-.633.572 2.58 2.58 0 00-.353.815 4.03 4.03 0 00-.121.936c0 .317.036.633.121.937.073.304.195.572.353.815.158.244.377.426.633.572.255.146.559.22.924.22s.657-.074.925-.22c.255-.146.462-.328.632-.572.159-.243.28-.51.353-.815.073-.304.122-.62.122-.937 0-.316-.037-.632-.122-.936a2.57 2.57 0 00-.353-.815 1.79 1.79 0 00-.632-.572c-.256-.146-.56-.22-.925-.22zm5.207 3.65c0 .255.049.474.134.657.085.182.207.328.365.437.158.11.328.195.535.256.207.049.426.085.657.085.256 0 .475-.024.657-.085a1.23 1.23 0 00.438-.231.84.84 0 00.316-.681c0-.256-.061-.438-.17-.56a1.04 1.04 0 00-.377-.256 6.933 6.933 0 00-.827-.243c-.317-.073-.706-.182-1.156-.304a2.605 2.605 0 01-.718-.292 1.631 1.631 0 01-.45-.402 1.46 1.46 0 01-.243-.474 1.84 1.84 0 01-.073-.51c0-.341.073-.621.207-.877.133-.255.328-.45.559-.608a2.39 2.39 0 01.779-.353c.292-.073.584-.122.888-.122.353 0 .681.05.985.134.304.085.584.231.815.402.231.182.414.401.56.669.134.268.207.572.207.912h-1.168c-.037-.425-.183-.73-.438-.912-.256-.183-.596-.268-.998-.268-.134 0-.279.012-.425.037a1.082 1.082 0 00-.39.146.892.892 0 00-.292.267.765.765 0 00-.121.426c0 .231.073.426.219.56.146.134.34.23.571.304.025 0 .122.036.292.073.171.036.365.097.572.158.207.06.414.11.621.158.206.049.352.098.437.122.219.073.414.158.572.28.158.121.292.255.402.401.109.158.194.316.243.487.049.17.085.352.085.523 0 .377-.073.693-.231.96a2.023 2.023 0 01-.596.646c-.243.17-.535.292-.852.365a4.342 4.342 0 01-.973.121 3.79 3.79 0 01-1.07-.146 2.446 2.446 0 01-.876-.425 2.109 2.109 0 01-.596-.743 2.436 2.436 0 01-.232-1.07h1.168l-.012-.024zm4.83-4.44h5.389v1.009h-2.117v5.657h-1.168v-5.657h-2.104v-1.01zm6.35 0h4.793v1.009h-3.625v1.74h3.358v.948h-3.358v1.947h3.698v1.01h-4.854v-6.655h-.012zm6.059 0h2.761c.511 0 .949.084 1.326.255.377.17.681.413.913.717.231.305.413.657.523 1.059a5.041 5.041 0 010 2.603c-.11.414-.292.754-.523 1.059-.232.304-.548.535-.913.717-.377.17-.815.256-1.326.256h-2.761v-6.667zm1.167 5.705h1.144c.45 0 .827-.061 1.119-.183a1.71 1.71 0 00.681-.498c.171-.22.28-.463.341-.755s.085-.608.085-.937a4.61 4.61 0 00-.085-.936 1.777 1.777 0 00-.341-.755 1.604 1.604 0 00-.681-.498c-.292-.122-.657-.183-1.119-.183h-1.144v4.757-.012z" fill="#FFFFFF"></path><defs><linearGradient id="paint0_linear_48080_21721-uid-11" x1="19.043" y1="100.37" x2="131.532" y2="100.37" gradientUnits="userSpaceOnUse"><stop stop-color="#E3EAE3"></stop><stop offset=".61" stop-color="#E1E8E1"></stop><stop offset=".89" stop-color="#DAE3DA"></stop><stop offset="1" stop-color="#D4DFD4"></stop></linearGradient><linearGradient id="paint1_linear_48080_21721-uid-11" x1="11.328" y1="71.883" x2="139.248" y2="71.883" gradientUnits="userSpaceOnUse"><stop stop-color="#E3EAE3"></stop><stop offset=".61" stop-color="#E1E8E1"></stop><stop offset=".89" stop-color="#DAE3DA"></stop><stop offset="1" stop-color="#D4DFD4"></stop></linearGradient><linearGradient id="paint2_linear_48080_21721-uid-11" x1="72.902" y1="66.875" x2="70.892" y2="12.215" gradientUnits="userSpaceOnUse"><stop stop-color="#fff"></stop><stop offset=".608" stop-color="#F6F9F6"></stop><stop offset="1" stop-color="#EFF5F0"></stop></linearGradient><linearGradient id="paint0_linear_48080_21721-uid-11" x1="19.043" y1="100.37" x2="131.532" y2="100.37" gradientUnits="userSpaceOnUse"><stop stop-color="#E3EAE3"></stop><stop offset=".61" stop-color="#E1E8E1"></stop><stop offset=".89" stop-color="#DAE3DA"></stop><stop offset="1" stop-color="#D4DFD4"></stop></linearGradient><linearGradient id="paint1_linear_48080_21721-uid-11" x1="11.328" y1="71.883" x2="139.248" y2="71.883" gradientUnits="userSpaceOnUse"><stop stop-color="#E3EAE3"></stop><stop offset=".61" stop-color="#E1E8E1"></stop><stop offset=".89" stop-color="#DAE3DA"></stop><stop offset="1" stop-color="#D4DFD4"></stop></linearGradient><linearGradient id="paint2_linear_48080_21721-uid-11" x1="72.902" y1="66.875" x2="70.892" y2="12.215" gradientUnits="userSpaceOnUse"><stop stop-color="#fff"></stop><stop offset=".608" stop-color="#F6F9F6"></stop><stop offset="1" stop-color="#EFF5F0"></stop></linearGradient><linearGradient id="paint0_linear_48080_21721-uid-11" x1="19.043" y1="100.37" x2="131.532" y2="100.37" gradientUnits="userSpaceOnUse"><stop stop-color="#E3EAE3"></stop><stop offset=".61" stop-color="#E1E8E1"></stop><stop offset=".89" stop-color="#DAE3DA"></stop><stop offset="1" stop-color="#D4DFD4"></stop></linearGradient><linearGradient id="paint1_linear_48080_21721-uid-11" x1="11.328" y1="71.883" x2="139.248" y2="71.883" gradientUnits="userSpaceOnUse"><stop stop-color="#E3EAE3"></stop><stop offset=".61" stop-color="#E1E8E1"></stop><stop offset=".89" stop-color="#DAE3DA"></stop><stop offset="1" stop-color="#D4DFD4"></stop></linearGradient><linearGradient id="paint2_linear_48080_21721-uid-11" x1="72.902" y1="66.875" x2="70.892" y2="12.215" gradientUnits="userSpaceOnUse"><stop stop-color="#fff"></stop><stop offset=".608" stop-color="#F6F9F6"></stop><stop offset="1" stop-color="#EFF5F0"></stop></linearGradient></defs></svg>