<svg xmlns:xlink="http://www.w3.org/1999/xlink" xmlns="http://www.w3.org/2000/svg" fill="none" aria-hidden="true" viewBox="0 0 24 24" role="img" width="24"  height="24" ><path vector-effect="non-scaling-stroke" stroke="#181818" stroke-linecap="round" stroke-linejoin="round" stroke-width="1.5px" d="M20 3h-5a1 1 0 00-1 1v5a1 1 0 001 1h5a1 1 0 001-1V4a1 1 0 00-1-1zM9 3H4a1 1 0 00-1 1v5a1 1 0 001 1h5a1 1 0 001-1V4a1 1 0 00-1-1zm11 11h-5a1 1 0 00-1 1v5a1 1 0 001 1h5a1 1 0 001-1v-5a1 1 0 00-1-1zM9 14H4a1 1 0 00-1 1v5a1 1 0 001 1h5a1 1 0 001-1v-5a1 1 0 00-1-1z" fill="none"></path></svg>