<svg xmlns:xlink="http://www.w3.org/1999/xlink" xmlns="http://www.w3.org/2000/svg" aria-hidden="true" width="38"  height="38" ><defs><symbol id="air3-rs" viewBox="0 0 38 38"><path d="M21.28 2.63l3.57 9.6 9.85.55c.49.03.96.2 1.34.52.4.31.68.74.84 1.23.15.49.16 1.02.03 1.51-.14.5-.41.94-.79 1.27l-7.67 6.5 2.57 9.98c.12.5.09 1.03-.08 1.52-.17.49-.47.9-.87 1.21a2.36 2.36 0 01-2.76.06L19 30.95l-8.3 5.59a2.35 2.35 0 01-2.74-.04c-.4-.3-.7-.71-.88-1.2a2.72 2.72 0 01-.1-1.51l2.55-9.95-7.65-6.53a2.58 2.58 0 01-.79-1.27 2.7 2.7 0 01.03-1.51c.16-.49.45-.92.83-1.23.4-.31.86-.5 1.35-.52l9.85-.55 3.57-9.6c.18-.49.5-.9.9-1.19a2.37 2.37 0 012.76 0c.4.3.72.7.9 1.19z"></path></symbol></defs><use xlink:href="#air3-rs" stroke="#DEBE1A" fill="#DEBE1A"></use></svg>